<svg width="100" height="58" viewBox="0 0 100 58" fill="none" xmlns="http://www.w3.org/2000/svg">
<path d="M38.92 47.08H17.96L14.6 57H0.28L20.6 0.839998H36.44L56.76 57H42.28L38.92 47.08ZM35.4 36.52L28.44 15.96L21.56 36.52H35.4ZM44.6244 28.84C44.6244 23.2933 45.8244 18.36 48.2244 14.04C50.6244 9.66667 53.9577 6.28 58.2244 3.88C62.5444 1.42666 67.4244 0.199997 72.8644 0.199997C79.531 0.199997 85.2377 1.96 89.9844 5.48C94.731 9 97.9044 13.8 99.5044 19.88H84.4644C83.3444 17.5333 81.7444 15.7467 79.6644 14.52C77.6377 13.2933 75.3177 12.68 72.7044 12.68C68.491 12.68 65.0777 14.1467 62.4644 17.08C59.851 20.0133 58.5444 23.9333 58.5444 28.84C58.5444 33.7467 59.851 37.6667 62.4644 40.6C65.0777 43.5333 68.491 45 72.7044 45C75.3177 45 77.6377 44.3867 79.6644 43.16C81.7444 41.9333 83.3444 40.1467 84.4644 37.8H99.5044C97.9044 43.88 94.731 48.68 89.9844 52.2C85.2377 55.6667 79.531 57.4 72.8644 57.4C67.4244 57.4 62.5444 56.2 58.2244 53.8C53.9577 51.3467 50.6244 47.96 48.2244 43.64C45.8244 39.32 44.6244 34.3867 44.6244 28.84Z" fill="#1A237E"/>
</svg>
