<svg width="24" height="24" viewBox="0 0 24 24" fill="none" xmlns="http://www.w3.org/2000/svg">
<path d="M17.7812 5.84382H17.75C17.4687 5.56257 17 5.56257 16.7187 5.84382L15.7812 6.75006L17.25 8.2188L18.1562 7.28131C18.4375 7.00006 18.4375 6.53131 18.1562 6.21881L17.7812 5.84382ZM10.5313 12.0313C10.4375 12.0938 10.375 12.2188 10.3438 12.3438L9.81251 14.1563L11.6563 13.6563C11.7813 13.625 11.875 13.5625 11.9688 13.4688L16.1875 9.25005L14.75 7.81256L10.5313 12.0313ZM15.6562 4.78132C16.5312 3.90633 17.9375 3.90633 18.8125 4.78132L19.2187 5.18757C20.0937 6.06257 20.0937 7.46881 19.2187 8.3438L13.0312 14.5313C12.7812 14.7813 12.4375 14.9688 12.0625 15.0938L8.93752 15.9688C8.68752 16.0625 8.40627 16 8.21877 15.7813C8.00002 15.5938 7.93752 15.3125 8.00002 15.0625L8.90627 11.9375C9.00002 11.5625 9.21877 11.2188 9.46876 10.9688L15.6562 4.78132ZM6.75003 6.00007H10.25C10.6563 6.00007 11 6.34381 11 6.75006C11 7.18756 10.6563 7.50006 10.25 7.50006H6.75003C6.03128 7.50006 5.50004 8.06255 5.50004 8.75005V17.25C5.50004 17.9688 6.03128 18.5 6.75003 18.5H15.25C15.9375 18.5 16.5 17.9688 16.5 17.25V13.75C16.5 13.3438 16.8125 13 17.25 13C17.6562 13 18 13.3438 18 13.75V17.25C18 18.7812 16.75 20 15.25 20H6.75003C5.21879 20 4.00004 18.7812 4.00004 17.25V8.75005C4.00004 7.25006 5.21879 6.00007 6.75003 6.00007Z" fill="#1A237E"/>
</svg>
