<svg width="19" height="19" viewBox="0 0 19 19" fill="none" xmlns="http://www.w3.org/2000/svg">
<path d="M16.4688 0.4375C17.5352 0.4375 18.4375 1.33984 18.4375 2.40625V16.8438C18.4375 17.9512 17.5352 18.8125 16.4688 18.8125H10.8086V12.5781H13.1875L13.6387 9.625H10.8086V7.73828C10.8086 6.91797 11.2188 6.13867 12.4902 6.13867H13.7617V3.63672C13.7617 3.63672 12.6133 3.43164 11.4648 3.43164C9.16797 3.43164 7.65039 4.86719 7.65039 7.41016V9.625H5.06641V12.5781H7.65039V18.8125H2.03125C0.923828 18.8125 0.0625 17.9512 0.0625 16.8438V2.40625C0.0625 1.33984 0.923828 0.4375 2.03125 0.4375H16.4688Z" fill="#1A237E"/>
</svg>
