<svg width="19" height="19" viewBox="0 0 19 19" fill="none" xmlns="http://www.w3.org/2000/svg">
<path d="M17.1249 0.4375C17.8222 0.4375 18.4374 1.05273 18.4374 1.79102V17.5C18.4374 18.2383 17.8222 18.8125 17.1249 18.8125H1.33392C0.636658 18.8125 0.062439 18.2383 0.062439 17.5V1.79102C0.062439 1.05273 0.636658 0.4375 1.33392 0.4375H17.1249ZM5.59955 16.1875V7.45117H2.89252V16.1875H5.59955ZM4.24603 6.2207C5.10736 6.2207 5.80463 5.52344 5.80463 4.66211C5.80463 3.80078 5.10736 3.0625 4.24603 3.0625C3.34369 3.0625 2.64642 3.80078 2.64642 4.66211C2.64642 5.52344 3.34369 6.2207 4.24603 6.2207ZM15.8124 16.1875V11.3887C15.8124 9.05078 15.2792 7.20508 12.5312 7.20508C11.2187 7.20508 10.3163 7.94336 9.9472 8.64062H9.90619V7.45117H7.3222V16.1875H10.0292V11.8809C10.0292 10.7324 10.2343 9.625 11.6699 9.625C13.0644 9.625 13.0644 10.9375 13.0644 11.9219V16.1875H15.8124Z" fill="#1A237E"/>
</svg>
