<svg width="11" height="17" viewBox="0 0 11 17" fill="none" xmlns="http://www.w3.org/2000/svg">
<path d="M0.512073 0.477024C0.184093 0.779177 -6.91169e-07 1.18791 -6.72546e-07 1.61395C-6.53923e-07 2.03999 0.184093 2.44872 0.512073 2.75087L6.74587 8.54032L0.512074 14.2491C0.184093 14.5513 -8.91707e-08 14.96 -7.05478e-08 15.3861C-5.1925e-08 15.8121 0.184094 16.2208 0.512074 16.523C0.675778 16.6741 0.870542 16.7941 1.08513 16.876C1.29972 16.9578 1.52989 17 1.76236 17C1.99482 17 2.22499 16.9578 2.43958 16.876C2.65417 16.7941 2.84893 16.6741 3.01264 16.523L10.4791 9.68531C10.6442 9.53539 10.7752 9.35703 10.8646 9.16051C10.954 8.96399 11 8.75321 11 8.54032C11 8.32743 10.954 8.11664 10.8646 7.92013C10.7752 7.72361 10.6442 7.54525 10.4791 7.39533L3.01264 0.477024C2.84893 0.325872 2.65417 0.2059 2.43958 0.124027C2.22499 0.0421542 1.99482 -8.71965e-08 1.76236 -7.7035e-08C1.52989 -6.68736e-08 1.29972 0.0421543 1.08513 0.124027C0.870541 0.2059 0.675778 0.325872 0.512073 0.477024Z" fill="#1A237E"/>
</svg>
