<svg width="24" height="24" viewBox="0 0 24 24" fill="none" xmlns="http://www.w3.org/2000/svg">
<path d="M5.5 11C5.5 12.3438 5.9375 13.5312 6.71875 14.5C7.15625 15 7.5 15.6875 7.5 16.4688V19.25C7.5 19.6875 7.15625 20 6.75 20C6.3125 20 6 19.6875 6 19.25V16.4688C6 16.125 5.84375 15.7812 5.5625 15.4375C4.5625 14.2188 4 12.6875 4 11C4 7.15625 7.125 4 11 4H11.75C14.1875 4 16.4688 5.5 17.4688 7.65625C17.5938 7.9375 17.7188 8.21875 17.8438 8.5L17.875 8.59375C18 8.90625 18.1562 9.21875 18.2812 9.5C18.5625 10.0938 18.875 10.5938 19.2812 10.9688L19.4062 11.125C19.7812 11.5 20 12 20 12.5312C20 13.625 19.0938 14.5 18 14.5V16C18 17.125 17.0938 18 16 18H14V19.25C14 19.6875 13.6562 20 13.25 20C12.8125 20 12.5 19.6875 12.5 19.25V17.25C12.5 16.8438 12.8125 16.5 13.25 16.5H16C16.25 16.5 16.5 16.2812 16.5 16V13.75C16.5 13.3438 16.8125 13 17.25 13H18C18.2812 13 18.5 12.7812 18.5 12.5312C18.5 12.4062 18.4375 12.2812 18.3438 12.1875L18.2188 12.0312C17.625 11.4688 17.25 10.8125 16.9375 10.1562C16.7812 9.84375 16.625 9.5 16.5 9.1875L16.4688 9.09375C16.3438 8.8125 16.2188 8.53125 16.0938 8.28125C15.3438 6.65625 13.625 5.5 11.75 5.5H11C7.9375 5.5 5.5 7.96875 5.5 11ZM13.75 10H12.375C12.4375 10.1562 12.5 10.3438 12.5 10.5C12.5 11.2188 11.9375 11.75 11.25 11.75C11.1562 11.75 11.0625 11.75 11 11.75V13.25C11 13.6875 10.6562 14 10.25 14C9.8125 14 9.5 13.6875 9.5 13.25V11.6562C9.34375 11.7188 9.15625 11.75 9 11.75C8.28125 11.75 7.75 11.2188 7.75 10.5C7.75 10.4688 7.75 10.4375 7.75 10.4062C7.28125 10.2188 7 9.78125 7 9.25C7 8.5625 7.53125 8 8.25 8C8.3125 7.4375 8.78125 7 9.375 7C9.5625 7 9.75 7.0625 9.90625 7.15625C10.125 6.78125 10.5312 6.5 11 6.5C11.4375 6.5 11.875 6.78125 12.0625 7.15625C12.2188 7.0625 12.4062 7 12.625 7C13 7 13.3438 7.21875 13.5625 7.53125C13.625 7.53125 13.6875 7.5 13.75 7.5C14.4375 7.5 15 8.0625 15 8.75C15 9.46875 14.4375 10 13.75 10Z" fill="#1A237E"/>
</svg>
