<svg width="24" height="24" viewBox="0 0 24 24" fill="none" xmlns="http://www.w3.org/2000/svg">
<path d="M9.5 5.75V7H14.5V5.75C14.5 5.625 14.375 5.5 14.25 5.5H9.75C9.59375 5.5 9.5 5.625 9.5 5.75ZM8 7V5.75C8 4.8125 8.78125 4 9.75 4H14.25C15.1875 4 16 4.8125 16 5.75V7H18C19.0938 7 20 7.90625 20 9V12.75V17C20 18.125 19.0938 19 18 19H6C4.875 19 4 18.125 4 17V12.75V9C4 7.90625 4.875 7 6 7H8ZM5.5 13.5V17C5.5 17.2812 5.71875 17.5 6 17.5H18C18.25 17.5 18.5 17.2812 18.5 17V13.5H14V14C14 14.5625 13.5312 15 13 15H11C10.4375 15 10 14.5625 10 14V13.5H5.5ZM10 12H14H18.5V9C18.5 8.75 18.25 8.5 18 8.5H15.25H8.75H6C5.71875 8.5 5.5 8.75 5.5 9V12H10Z" fill="#1A237E"/>
</svg>
