<svg width="24" height="24" viewBox="0 0 24 24" fill="none" xmlns="http://www.w3.org/2000/svg">
<path d="M10.25 6.5625C10.0625 6.875 9.71875 7.03125 9.375 6.9375C8.6875 6.71875 7.9375 6.875 7.375 7.40625C6.84375 7.9375 6.6875 8.71875 6.90625 9.375C7 9.71875 6.84375 10.0938 6.53125 10.2812C5.90625 10.5938 5.5 11.25 5.5 12C5.5 12.7812 5.90625 13.4375 6.53125 13.75C6.84375 13.9375 7 14.2812 6.90625 14.625C6.6875 15.3125 6.875 16.0625 7.40625 16.5938C7.9375 17.125 8.6875 17.3125 9.375 17.0938C9.71875 17 10.0938 17.1562 10.25 17.4688C10.5938 18.0938 11.25 18.5 12 18.5C12.75 18.5 13.4062 18.0938 13.7188 17.4688C13.9062 17.1562 14.2812 17 14.625 17.0938C15.2812 17.3125 16.0625 17.125 16.5938 16.5938C17.125 16.0625 17.2812 15.3125 17.0625 14.625C16.9688 14.2812 17.125 13.9062 17.4375 13.75C18.0625 13.4062 18.5 12.75 18.5 12C18.5 11.25 18.0625 10.5938 17.4375 10.2812C17.125 10.0938 16.9688 9.71875 17.0625 9.375C17.2812 8.71875 17.125 7.9375 16.5938 7.40625C16.0625 6.875 15.2812 6.71875 14.625 6.9375C14.2812 7.03125 13.9062 6.875 13.7188 6.5625C13.4062 5.9375 12.75 5.5 12 5.5C11.2188 5.5 10.5625 5.9375 10.25 6.5625ZM12 4C13.0938 4 14.0938 4.53125 14.75 5.375C15.7812 5.21875 16.8438 5.5625 17.6562 6.34375C18.4375 7.15625 18.75 8.21875 18.625 9.25C19.4688 9.90625 20 10.9062 20 12C20 13.125 19.4688 14.125 18.625 14.75C18.7812 15.7812 18.4375 16.875 17.6562 17.6562C16.8438 18.4688 15.7812 18.7812 14.75 18.6562C14.0938 19.4688 13.0938 20 12 20C10.875 20 9.875 19.4688 9.25 18.6562C8.21875 18.7812 7.125 18.4688 6.34375 17.6875C5.53125 16.875 5.21875 15.8125 5.34375 14.7812C4.53125 14.125 4 13.125 4 12C4 10.9062 4.53125 9.90625 5.34375 9.25C5.21875 8.21875 5.53125 7.15625 6.3125 6.34375C7.125 5.5625 8.1875 5.25 9.21875 5.375C9.875 4.53125 10.875 4 12 4ZM15.5312 10.5312L11.5312 14.5312C11.2188 14.8438 10.75 14.8438 10.4688 14.5312L8.46875 12.5312C8.15625 12.25 8.15625 11.7812 8.46875 11.5C8.75 11.1875 9.21875 11.1875 9.53125 11.5L11 12.9688L14.4688 9.5C14.75 9.1875 15.2188 9.1875 15.5312 9.5C15.8125 9.78125 15.8125 10.25 15.5312 10.5312Z" fill="#1A237E"/>
</svg>
