<svg width="24" height="24" viewBox="0 0 24 24" fill="none" xmlns="http://www.w3.org/2000/svg">
<path d="M16.7188 6.28125C15.9062 5.46875 14.5625 5.46875 13.75 6.28125L7.78125 12.2812C6.40625 13.6562 6.40625 15.875 7.78125 17.2188C9.125 18.5938 11.3438 18.5938 12.7188 17.2188L17.4688 12.4688C17.75 12.1875 18.2188 12.1875 18.5 12.4688C18.8125 12.7812 18.8125 13.25 18.5 13.5312L13.7812 18.2812C11.8125 20.25 8.65625 20.25 6.71875 18.2812C4.75 16.3438 4.75 13.1875 6.71875 11.2188L12.7188 5.21875C14.0938 3.84375 16.375 3.84375 17.7812 5.21875C19.1562 6.625 19.1562 8.90625 17.7812 10.2812L12.0312 16.0312C11.0312 17.0312 9.40625 16.9375 8.53125 15.8438C7.78125 14.9062 7.875 13.5625 8.71875 12.7188L13.4688 7.96875C13.75 7.6875 14.2188 7.6875 14.5 7.96875C14.8125 8.28125 14.8125 8.75 14.5 9.03125L9.78125 13.7812C9.46875 14.0938 9.4375 14.5625 9.71875 14.9062C10.0312 15.2812 10.5938 15.3438 10.9688 14.9688L16.7188 9.21875C17.5312 8.40625 17.5312 7.09375 16.7188 6.28125Z" fill="#1A237E"/>
</svg>
