<svg width="24" height="24" viewBox="0 0 24 24" fill="none" xmlns="http://www.w3.org/2000/svg">
<path d="M4.75 13.6875C4.71875 13.75 4.6875 13.8125 4.625 13.8438C4.5625 14 4.46875 14.125 4.40625 14.2812C4.9375 14.1562 5.4375 13.9375 5.9375 13.7188C6.09375 13.6562 6.21875 13.5938 6.34375 13.5312C6.65625 13.375 6.96875 13.3438 7.3125 13.4062C7.6875 13.4688 8.0625 13.5 8.5 13.5C11.5 13.5 13.5 11.5 13.5 9.5C13.5 7.53125 11.5 5.5 8.5 5.5C5.46875 5.5 3.5 7.53125 3.5 9.5C3.5 10.375 3.84375 11.2188 4.5 11.9375C4.96875 12.4062 5.0625 13.0938 4.75 13.6875ZM2 9.5C2 6.46875 4.90625 4 8.5 4C12.0625 4 15 6.46875 15 9.5C15 12.5625 12.0625 15 8.5 15C7.96875 15 7.5 14.9688 7 14.875C6.875 14.9375 6.71875 15.0312 6.5625 15.0938C5.4375 15.5938 4.09375 16 2.75 16C2.4375 16 2.15625 15.8438 2.03125 15.5625C1.9375 15.2812 1.96875 14.9688 2.1875 14.75C2.625 14.25 3 13.6875 3.34375 13.125C3.375 13.0625 3.40625 13 3.40625 12.9688C2.53125 12.0312 2 10.8125 2 9.5ZM15.5 19C12.9375 19 10.7188 17.75 9.65625 15.9375C10.1875 15.8438 10.7188 15.7188 11.2188 15.5625C12.0312 16.6875 13.5625 17.5 15.4688 17.5C15.9062 17.5 16.2812 17.4688 16.6562 17.4062C17 17.3438 17.3125 17.375 17.625 17.5312C17.75 17.5938 17.875 17.6562 18.0312 17.7188C18.5312 17.9375 19.0312 18.125 19.5625 18.2812C19.5 18.125 19.4062 18 19.3438 17.8438C19.3125 17.7812 19.25 17.7188 19.2188 17.6562C18.9375 17.0938 19.0312 16.4062 19.4688 15.9375C20.125 15.2188 20.5 14.375 20.5 13.5C20.5 11.6562 18.7188 9.75 16 9.53125V9.5C16 9 15.9062 8.5 15.7812 8.03125C19.25 8.15625 22 10.5625 22 13.5C22 14.8125 21.4375 16.0312 20.5625 16.9688C20.5625 17.0312 20.5938 17.0625 20.625 17.125C20.9688 17.6875 21.3438 18.25 21.7812 18.75C22 18.9688 22.0312 19.2812 21.9375 19.5625C21.8125 19.8438 21.5312 20 21.25 20C19.9062 20 18.5312 19.5938 17.4062 19.0938C17.25 19.0312 17.0938 18.9375 16.9688 18.875C16.4688 18.9688 16 19 15.5 19Z" fill="#1A237E"/>
</svg>
