<svg width="24" height="25" viewBox="0 0 24 25" fill="none" xmlns="http://www.w3.org/2000/svg">
<path d="M18.75 4.71875L19 5.5L19.7812 5.75C19.9062 5.78125 20 5.875 20 6C20 6.125 19.9062 6.25 19.7812 6.28125L19 6.5L18.75 7.3125C18.7188 7.4375 18.625 7.5 18.5 7.5C18.375 7.5 18.25 7.4375 18.2188 7.3125L18 6.5L17.1875 6.28125C17.0625 6.25 17 6.125 17 6C17 5.875 17.0625 5.78125 17.1875 5.75L18 5.5L18.2188 4.71875C18.25 4.59375 18.3438 4.5 18.5 4.5C18.625 4.5 18.7188 4.59375 18.75 4.71875ZM5.75 6.71875L6 7.5L6.78125 7.75C6.90625 7.78125 7 7.875 7 8C7 8.125 6.90625 8.25 6.78125 8.28125L6 8.5L5.75 9.3125C5.71875 9.4375 5.625 9.5 5.5 9.5C5.375 9.5 5.25 9.4375 5.21875 9.3125L5 8.5L4.1875 8.28125C4.0625 8.25 4 8.15625 4 8C4 7.875 4.0625 7.78125 4.1875 7.75L5 7.5L5.21875 6.71875C5.25 6.59375 5.34375 6.5 5.5 6.5C5.625 6.5 5.71875 6.59375 5.75 6.71875ZM7 19.75C7 19.3438 7.3125 19 7.75 19H16.25C16.6562 19 17 19.3438 17 19.75C17 20.1875 16.6562 20.5 16.25 20.5H7.75C7.3125 20.5 7 20.1875 7 19.75ZM10.5 6C10.5 5.46875 10.7812 5 11.25 4.71875C11.6875 4.4375 12.2812 4.4375 12.75 4.71875C13.1875 5 13.5 5.46875 13.5 6C13.5 6.5625 13.1875 7.03125 12.75 7.3125C12.2812 7.59375 11.6875 7.59375 11.25 7.3125C10.7812 7.03125 10.5 6.5625 10.5 6ZM11.5 14.5V18H10V11.0312L8.34375 13.2188C8.09375 13.5625 7.625 13.625 7.28125 13.375C6.96875 13.125 6.875 12.625 7.125 12.3125L9.1875 9.59375C9.71875 8.90625 10.5312 8.5 11.375 8.5H12.5938C13.4375 8.5 14.25 8.90625 14.7812 9.59375L16.8438 12.3125C17.0938 12.6562 17.0312 13.125 16.6875 13.375C16.375 13.625 15.875 13.5312 15.625 13.2188L14 11.0312V18H12.5V14.5H11.5ZM11.5 13H12.5V10H11.5V13Z" fill="#666666"/>
</svg>
