<svg width="19" height="19" viewBox="0 0 19 19" fill="none" xmlns="http://www.w3.org/2000/svg">
<path d="M9.25 4.9082C11.834 4.9082 13.9668 7.04102 13.9668 9.625C13.9668 12.25 11.834 14.3418 9.25 14.3418C6.625 14.3418 4.5332 12.25 4.5332 9.625C4.5332 7.04102 6.625 4.9082 9.25 4.9082ZM9.25 12.7012C10.9316 12.7012 12.2852 11.3477 12.2852 9.625C12.2852 7.94336 10.9316 6.58984 9.25 6.58984C7.52734 6.58984 6.17383 7.94336 6.17383 9.625C6.17383 11.3477 7.56836 12.7012 9.25 12.7012ZM15.2383 4.74414C15.2383 5.35938 14.7461 5.85156 14.1309 5.85156C13.5156 5.85156 13.0234 5.35938 13.0234 4.74414C13.0234 4.12891 13.5156 3.63672 14.1309 3.63672C14.7461 3.63672 15.2383 4.12891 15.2383 4.74414ZM18.3555 5.85156C18.4375 7.36914 18.4375 11.9219 18.3555 13.4395C18.2734 14.916 17.9453 16.1875 16.8789 17.2949C15.8125 18.3613 14.5 18.6895 13.0234 18.7715C11.5059 18.8535 6.95312 18.8535 5.43555 18.7715C3.95898 18.6895 2.6875 18.3613 1.58008 17.2949C0.513672 16.1875 0.185547 14.916 0.103516 13.4395C0.0214844 11.9219 0.0214844 7.36914 0.103516 5.85156C0.185547 4.375 0.513672 3.0625 1.58008 1.99609C2.6875 0.929688 3.95898 0.601562 5.43555 0.519531C6.95312 0.4375 11.5059 0.4375 13.0234 0.519531C14.5 0.601562 15.8125 0.929688 16.8789 1.99609C17.9453 3.0625 18.2734 4.375 18.3555 5.85156ZM16.3867 15.0391C16.8789 13.8496 16.7559 10.9785 16.7559 9.625C16.7559 8.3125 16.8789 5.44141 16.3867 4.21094C16.0586 3.43164 15.4434 2.77539 14.6641 2.48828C13.4336 1.99609 10.5625 2.11914 9.25 2.11914C7.89648 2.11914 5.02539 1.99609 3.83594 2.48828C3.01562 2.81641 2.40039 3.43164 2.07227 4.21094C1.58008 5.44141 1.70312 8.3125 1.70312 9.625C1.70312 10.9785 1.58008 13.8496 2.07227 15.0391C2.40039 15.8594 3.01562 16.4746 3.83594 16.8027C5.02539 17.2949 7.89648 17.1719 9.25 17.1719C10.5625 17.1719 13.4336 17.2949 14.6641 16.8027C15.4434 16.4746 16.0996 15.8594 16.3867 15.0391Z" fill="#1A237E"/>
</svg>
