<svg width="24" height="24" viewBox="0 0 24 24" fill="none" xmlns="http://www.w3.org/2000/svg">
<path d="M8.78125 6.40625C8.71875 6.625 8.5625 6.8125 8.375 6.90625C7.84375 7.125 7.5 7.65625 7.5 8.25C7.46875 8.53125 7.3125 8.78125 7.0625 8.90625C6.5625 9.15625 6.25 9.6875 6.25 10.25C6.25 10.5 6.28125 10.6875 6.375 10.875C6.5 11.1875 6.4375 11.5312 6.1875 11.75C5.75 12.125 5.5 12.6562 5.5 13.25C5.5 13.9062 5.78125 14.4688 6.21875 14.8125C6.4375 15 6.53125 15.25 6.5 15.5312C6.5 15.5938 6.5 15.6875 6.5 15.75C6.5 16.5938 7.125 17.25 7.9375 17.25C8.21875 17.2812 8.5 17.4375 8.59375 17.7188C8.8125 18.1875 9.3125 18.5 9.875 18.5C10.625 18.5 11.25 17.9062 11.25 17.125V6.75C11.25 6.0625 10.6875 5.5 10 5.5C9.40625 5.5 8.9375 5.90625 8.78125 6.40625ZM12 19.0625C11.4688 19.6562 10.6875 20 9.875 20C8.84375 20 7.96875 19.5 7.46875 18.7188C6.0625 18.4688 5 17.25 5 15.75V15.7188C4.375 15.0938 4 14.2188 4 13.25C4 12.4062 4.3125 11.5938 4.8125 11C4.78125 10.75 4.75 10.5 4.75 10.25C4.75 9.25 5.25 8.34375 6.03125 7.8125C6.15625 6.90625 6.6875 6.125 7.46875 5.6875C7.875 4.6875 8.84375 4 10 4C10.7812 4 11.5 4.34375 12 4.875C12.5 4.34375 13.1875 4 14 4C15.125 4 16.0938 4.6875 16.5 5.6875C17.2812 6.125 17.8125 6.90625 17.9375 7.8125C18.7188 8.34375 19.25 9.25 19.25 10.25C19.25 10.5 19.2188 10.75 19.1562 11C19.6562 11.5938 20 12.4062 20 13.25C20 14.2188 19.5938 15.0938 19 15.7188V15.75C19 17.25 17.9062 18.4688 16.5 18.7188C16 19.5 15.125 20 14.125 20C13.2812 20 12.5 19.6562 12 19.0625ZM12.75 17.125C12.75 17.9062 13.3438 18.5 14.125 18.5C14.6562 18.5 15.1562 18.1875 15.375 17.7188C15.4688 17.4375 15.75 17.2812 16.0312 17.25C16.8438 17.25 17.5 16.5938 17.5 15.75C17.5 15.6875 17.4688 15.5938 17.4688 15.5312C17.4375 15.25 17.5312 15 17.75 14.8125C18.1875 14.4688 18.5 13.9062 18.5 13.25C18.5 12.6562 18.2188 12.125 17.7812 11.75C17.5312 11.5312 17.4688 11.1875 17.5938 10.875C17.6875 10.6875 17.75 10.5 17.75 10.25C17.75 9.6875 17.4062 9.15625 16.9062 8.90625C16.6562 8.78125 16.5 8.53125 16.5 8.25C16.4688 7.65625 16.125 7.125 15.5938 6.90625C15.4062 6.8125 15.25 6.625 15.1875 6.40625C15.0312 5.90625 14.5625 5.5 14 5.5C13.2812 5.5 12.75 6.0625 12.75 6.75V17.125Z" fill="#1A237E"/>
</svg>
