<svg width="11" height="17" viewBox="0 0 11 17" fill="none" xmlns="http://www.w3.org/2000/svg">
<path d="M10.488 16.523C10.8159 16.2208 11 15.8121 11 15.3861C11 14.96 10.8159 14.5513 10.488 14.2491L4.25416 8.45968L10.488 2.75087C10.8159 2.44872 11 2.03999 11 1.61395C11 1.1879 10.8159 0.779173 10.488 0.477022C10.3243 0.32587 10.1295 0.205897 9.9149 0.124024C9.70031 0.0421516 9.47014 -5.69908e-08 9.23767 -6.56505e-08C9.00521 -7.43103e-08 8.77504 0.0421516 8.56045 0.124024C8.34586 0.205897 8.1511 0.32587 7.98739 0.477022L0.520919 7.31469C0.355867 7.46461 0.224862 7.64297 0.13546 7.83949C0.0460582 8.03601 3.00996e-05 8.24679 3.00888e-05 8.45968C3.0078e-05 8.67257 0.0460582 8.88336 0.13546 9.07987C0.224862 9.27639 0.355867 9.45475 0.520919 9.60467L7.98739 16.523C8.1511 16.6741 8.34586 16.7941 8.56045 16.876C8.77504 16.9578 9.00521 17 9.23767 17C9.47014 17 9.70031 16.9578 9.9149 16.876C10.1295 16.7941 10.3243 16.6741 10.488 16.523Z" fill="#1A237E"/>
</svg>
