<svg width="24" height="24" viewBox="0 0 24 24" fill="none" xmlns="http://www.w3.org/2000/svg">
<path d="M5.25 5.5H6.75C7.15625 5.5 7.5 5.84375 7.5 6.25V7.75C7.5 8.1875 7.15625 8.5 6.75 8.5H5.25C4.8125 8.5 4.5 8.1875 4.5 7.75V6.25C4.5 5.84375 4.8125 5.5 5.25 5.5ZM9.75 6.25H19.25C19.6562 6.25 20 6.59375 20 7C20 7.4375 19.6562 7.75 19.25 7.75H9.75C9.3125 7.75 9 7.4375 9 7C9 6.59375 9.3125 6.25 9.75 6.25ZM9.75 11.25H19.25C19.6562 11.25 20 11.5938 20 12C20 12.4375 19.6562 12.75 19.25 12.75H9.75C9.3125 12.75 9 12.4375 9 12C9 11.5938 9.3125 11.25 9.75 11.25ZM9.75 16.25H19.25C19.6562 16.25 20 16.5938 20 17C20 17.4375 19.6562 17.75 19.25 17.75H9.75C9.3125 17.75 9 17.4375 9 17C9 16.5938 9.3125 16.25 9.75 16.25ZM4.5 11.25C4.5 10.8438 4.8125 10.5 5.25 10.5H6.75C7.15625 10.5 7.5 10.8438 7.5 11.25V12.75C7.5 13.1875 7.15625 13.5 6.75 13.5H5.25C4.8125 13.5 4.5 13.1875 4.5 12.75V11.25ZM5.25 15.5H6.75C7.15625 15.5 7.5 15.8438 7.5 16.25V17.75C7.5 18.1875 7.15625 18.5 6.75 18.5H5.25C4.8125 18.5 4.5 18.1875 4.5 17.75V16.25C4.5 15.8438 4.8125 15.5 5.25 15.5Z" fill="#1A237E"/>
</svg>
