<svg width="24" height="25" viewBox="0 0 24 25" fill="none" xmlns="http://www.w3.org/2000/svg">
<path d="M10 6C9.71875 6 9.5 6.25 9.5 6.5V13.5C9.5 13.7812 9.6875 14 9.96875 14L12.125 11.0625C12.2812 10.875 12.5 10.75 12.75 10.75C12.9688 10.75 13.1875 10.875 13.3438 11.0625L13.875 11.7812L15.625 9.09375C15.75 8.875 16 8.75 16.25 8.75C16.5 8.75 16.7188 8.875 16.875 9.09375L20.0625 14C20.3125 13.9688 20.5 13.75 20.5 13.5V6.5C20.5 6.25 20.25 6 20 6H10ZM8 6.5C8 5.40625 8.875 4.5 10 4.5H20C21.0938 4.5 22 5.40625 22 6.5V13.5C22 14.625 21.0938 15.5 20 15.5H10C8.875 15.5 8 14.625 8 13.5V6.5ZM6.25 8.5H7V10V12.75V16.25V16.5V19H13V16.5H14.5V19H16C16.25 19 16.5 18.7812 16.5 18.5V16.5H18V18.5C18 19.625 17.0938 20.5 16 20.5H14.5H13.75H13H7H6.25H5.5H4C2.875 20.5 2 19.625 2 18.5V10.5C2 9.40625 2.875 8.5 4 8.5H5.5H6.25ZM5.5 10H4C3.71875 10 3.5 10.25 3.5 10.5V12H5.5V10ZM5.5 19V17H3.5V18.5C3.5 18.7812 3.71875 19 4 19H5.5ZM3.5 15.5H5.5V13.5H3.5V15.5ZM11.5 7C12.0312 7 12.5 7.46875 12.5 8C12.5 8.5625 12.0312 9 11.5 9C10.9375 9 10.5 8.5625 10.5 8C10.5 7.46875 10.9375 7 11.5 7Z" fill="#666666"/>
</svg>
