<svg width="24" height="24" viewBox="0 0 24 24" fill="none" xmlns="http://www.w3.org/2000/svg">
<path d="M12 18.5C15.5625 18.5 18.5 15.5938 18.5 12C18.5 8.4375 15.5625 5.5 12 5.5C8.40625 5.5 5.5 8.4375 5.5 12C5.5 12.1875 5.5 12.3438 5.5 12.5312L4.03125 12.9688C4 12.6562 4 12.3438 4 12C4 7.59375 7.5625 4 12 4C16.4062 4 20 7.59375 20 12C20 16.4375 16.4062 20 12 20C11.6562 20 11.3438 20 11.0312 19.9688L11.4688 18.5C11.6562 18.5 11.8125 18.5 12 18.5ZM11.9062 17L12.3438 15.5C14.125 15.3125 15.5 13.8125 15.5 12C15.5 10.0938 13.9062 8.5 12 8.5C10.1875 8.5 8.6875 9.875 8.5 11.6562L7 12.0938C7 12.0625 7 12.0312 7 12C7 9.25 9.21875 7 12 7C14.75 7 17 9.25 17 12C17 14.7812 14.75 17 12 17C11.9688 17 11.9375 17 11.9062 17ZM5.21875 13.6562L11.5938 11.7812C11.9688 11.6562 12.3438 12 12.2188 12.4062L10.3438 18.7812C10.2188 19.2188 9.625 19.2812 9.40625 18.875L8.53125 17.0938C8.5 17.0312 8.46875 17 8.4375 16.9688L5.6875 19.7188C5.3125 20.125 4.65625 20.125 4.28125 19.7188C3.875 19.3438 3.875 18.6875 4.28125 18.3125L7.03125 15.5625C7 15.5312 6.96875 15.5 6.90625 15.4688L5.125 14.5938C4.71875 14.375 4.78125 13.7812 5.21875 13.6562Z" fill="#1A237E"/>
</svg>
