<svg width="24" height="24" viewBox="0 0 24 24" fill="none" xmlns="http://www.w3.org/2000/svg">
<path d="M6.4375 4.15625L9.6875 6.65625C9.875 6.8125 10 7.03125 10 7.25V8.9375L13.4062 12.3438C14.3125 11.9062 15.4375 12.0625 16.1875 12.8125L19.6875 16.3125C20.0938 16.6875 20.0938 17.3438 19.6875 17.7188L17.6875 19.7188C17.3125 20.125 16.6562 20.125 16.2812 19.7188L12.7812 16.2188C12.0312 15.4688 11.875 14.3125 12.3438 13.4062L8.9375 10H7.21875C7 10 6.78125 9.90625 6.625 9.71875L4.125 6.46875C3.90625 6.15625 3.9375 5.75 4.21875 5.46875L5.46875 4.21875C5.71875 3.96875 6.15625 3.9375 6.4375 4.15625ZM4.71875 15.7812L9 11.5L10.0625 12.5625L5.78125 16.8438C5.59375 17.0312 5.5 17.2812 5.5 17.5312C5.5 18.0625 5.9375 18.5 6.46875 18.5C6.71875 18.5 6.96875 18.4062 7.15625 18.2188L11.0625 14.3125C11.0312 14.9062 11.1562 15.5 11.4375 16.0625L8.21875 19.2812C7.75 19.75 7.125 20 6.46875 20C5.09375 20 4 18.9062 4 17.5312C4 16.875 4.25 16.25 4.71875 15.7812ZM18.4688 9.125L17.6875 9.9375C17.3125 10.3125 16.8125 10.5 16.2812 10.5H15.5C14.375 10.5 13.5 9.625 13.5 8.5V7.71875C13.5 7.1875 13.6875 6.6875 14.0625 6.3125L14.875 5.53125C13 5.59375 11.5 7.125 11.5 9V9.03125L11 8.53125V7.25C11 6.9375 10.9062 6.625 10.75 6.375C11.625 4.96875 13.1875 4 15 4C15.75 4 16.5 4.1875 17.1562 4.5C17.4375 4.65625 17.4688 5.03125 17.25 5.25L15.125 7.375C15.0312 7.46875 15 7.59375 15 7.71875V8.53125C15 8.78125 15.2188 9.03125 15.5 9.03125H16.2812C16.4062 9.03125 16.5312 8.96875 16.625 8.875L18.75 6.75C18.9688 6.53125 19.3438 6.5625 19.5 6.84375C19.8125 7.5 20 8.25 20 9.03125C20 10.6875 19.1562 12.1875 17.875 13.0938L16.9062 12.0938C16.875 12.0625 16.8438 12.0312 16.8125 12C17.7812 11.4062 18.4375 10.3438 18.4688 9.125Z" fill="#1A237E"/>
</svg>
