<svg width="24" height="25" viewBox="0 0 24 25" fill="none" xmlns="http://www.w3.org/2000/svg">
<path d="M15.5 19H16C16.25 19 16.5 18.7812 16.5 18.5V9.5H14C13.4375 9.5 13 9.0625 13 8.5V6H8C7.71875 6 7.5 6.25 7.5 6.5V18.5C7.5 18.7812 7.71875 19 8 19H8.5C8.5 17.625 9.59375 16.5 11 16.5H13C14.375 16.5 15.5 17.625 15.5 19ZM8 4.5H13.1562C13.6875 4.5 14.1875 4.71875 14.5625 5.09375L17.4062 7.9375C17.7812 8.3125 18 8.8125 18 9.34375V18.5C18 19.625 17.0938 20.5 16 20.5H8C6.875 20.5 6 19.625 6 18.5V6.5C6 5.40625 6.875 4.5 8 4.5ZM14 13.5C14 14.2188 13.5938 14.875 13 15.25C12.375 15.5938 11.5938 15.5938 11 15.25C10.375 14.875 10 14.2188 10 13.5C10 12.8125 10.375 12.1562 11 11.7812C11.5938 11.4375 12.375 11.4375 13 11.7812C13.5938 12.1562 14 12.8125 14 13.5Z" fill="#666666"/>
</svg>
