<svg width="24" height="25" viewBox="0 0 24 25" fill="none" xmlns="http://www.w3.org/2000/svg">
<path d="M5 8C4.71875 8 4.5 8.25 4.5 8.5V16.5C4.5 16.7812 4.71875 17 5 17H13C13.25 17 13.5 16.7812 13.5 16.5V8.5C13.5 8.25 13.25 8 13 8H5ZM3 8.5C3 7.40625 3.875 6.5 5 6.5H13C14.0938 6.5 15 7.40625 15 8.5V9.53125V15.4688V16.5C15 17.625 14.0938 18.5 13 18.5H5C3.875 18.5 3 17.625 3 16.5V8.5ZM19.5 15.875V9.15625L16 10.7188V9.09375L19.25 7.625C19.4062 7.5625 19.5625 7.5 19.75 7.5C20.4375 7.5 21 8.0625 21 8.75V16.2812C21 16.9688 20.4375 17.5 19.75 17.5C19.5625 17.5 19.4062 17.4688 19.25 17.4062L16 15.9375V14.2812L19.5 15.875Z" fill="#666666"/>
</svg>
